<svg version="1.1" viewBox="0.0 0.0 360.26771653543307 357.8503937007874" fill="none" stroke="none" stroke-linecap="square" stroke-miterlimit="10" xmlns:xlink="http://www.w3.org/1999/xlink" xmlns="http://www.w3.org/2000/svg"><clipPath id="p.0"><path d="m0 0l360.26773 0l0 357.8504l-360.26773 0l0 -357.8504z" clip-rule="nonzero"/></clipPath><g clip-path="url(#p.0)"><path fill="#000000" fill-opacity="0.0" d="m0 0l360.26773 0l0 357.8504l-360.26773 0z" fill-rule="evenodd"/><path fill="#000000" fill-opacity="0.0" d="m219.09448 106.35074l0 0c0 -11.993706 9.722824 -21.71653 21.716537 -21.71653l0 0c5.7595825 0 11.283279 2.2879791 15.355911 6.360626c4.072632 4.0726395 6.360626 9.596321 6.360626 15.355904l0 0c0 11.993713 -9.722824 21.716537 -21.716537 21.716537l0 0c-11.993713 0 -21.716537 -9.722824 -21.716537 -21.716537z" fill-rule="evenodd"/><path stroke="#ffffff" stroke-width="8.0" stroke-linejoin="round" stroke-linecap="butt" d="m219.09448 106.35074l0 0c0 -11.993706 9.722824 -21.71653 21.716537 -21.71653l0 0c5.7595825 0 11.283279 2.2879791 15.355911 6.360626c4.072632 4.0726395 6.360626 9.596321 6.360626 15.355904l0 0c0 11.993713 -9.722824 21.716537 -21.716537 21.716537l0 0c-11.993713 0 -21.716537 -9.722824 -21.716537 -21.716537z" fill-rule="evenodd"/><path fill="#000000" fill-opacity="0.0" d="m240.81102 130.0586l0 79.55905" fill-rule="evenodd"/><path stroke="#ffffff" stroke-width="8.0" stroke-linejoin="round" stroke-linecap="butt" d="m240.81102 130.0586l0 79.55905" fill-rule="evenodd"/><path fill="#000000" fill-opacity="0.0" d="m240.81102 204.96326l-31.370071 54.362213" fill-rule="evenodd"/><path stroke="#ffffff" stroke-width="8.0" stroke-linejoin="round" stroke-linecap="butt" d="m240.81102 204.96326l-31.370071 54.362213" fill-rule="evenodd"/><path fill="#000000" fill-opacity="0.0" d="m240.81172 204.96422l31.370071 54.362198" fill-rule="evenodd"/><path stroke="#ffffff" stroke-width="8.0" stroke-linejoin="round" stroke-linecap="butt" d="m240.81172 204.96422l31.370071 54.362198" fill-rule="evenodd"/><path fill="#000000" fill-opacity="0.0" d="m241.14174 142.48715l36.062973 36.06299" fill-rule="evenodd"/><path stroke="#ffffff" stroke-width="8.0" stroke-linejoin="round" stroke-linecap="butt" d="m241.14174 142.48715l36.062973 36.06299" fill-rule="evenodd"/><path fill="#000000" fill-opacity="0.0" d="m240.48032 142.48715l-36.06299 36.06299" fill-rule="evenodd"/><path stroke="#ffffff" stroke-width="8.0" stroke-linejoin="round" stroke-linecap="butt" d="m240.48032 142.48715l-36.06299 36.06299" fill-rule="evenodd"/><path fill="#000000" fill-opacity="0.0" d="m240.46457 46.870426l0.3464508 37.763783" fill-rule="evenodd"/><path stroke="#ffffff" stroke-width="4.0" stroke-linejoin="round" stroke-linecap="butt" d="m240.46457 46.870426l0.3464508 37.763783" fill-rule="evenodd"/><path fill="#000000" fill-opacity="0.0" d="m240.48032 48.87166l-120.15748 0" fill-rule="evenodd"/><path stroke="#ffffff" stroke-width="4.0" stroke-linejoin="round" stroke-linecap="butt" d="m240.48032 48.87166l-120.15748 0" fill-rule="evenodd"/><path fill="#000000" fill-opacity="0.0" d="m120.30708 46.868767l0 267.0551" fill-rule="evenodd"/><path stroke="#ffffff" stroke-width="4.0" stroke-linejoin="round" stroke-linecap="butt" d="m120.30708 46.868767l0 267.0551" fill-rule="evenodd"/><path fill="#000000" fill-opacity="0.0" d="m80.91601 313.92126l198.96063 0" fill-rule="evenodd"/><path stroke="#ffffff" stroke-width="4.0" stroke-linejoin="round" stroke-linecap="butt" d="m80.91601 313.92126l198.96063 0" fill-rule="evenodd"/><path fill="#ffffff" d="m200.49081 178.51706l0 0c0 -2.191742 1.7767639 -3.9685059 3.9685059 -3.9685059l0 0c1.0525055 0 2.0619202 0.41810608 2.8061523 1.1623535c0.74424744 0.7442322 1.1623535 1.7536469 1.1623535 2.8061523l0 0c0 2.191742 -1.7767639 3.9685059 -3.9685059 3.9685059l0 0c-2.191742 0 -3.9685059 -1.7767639 -3.9685059 -3.9685059z" fill-rule="evenodd"/><path stroke="#ffffff" stroke-width="1.0" stroke-linejoin="round" stroke-linecap="butt" d="m200.49081 178.51706l0 0c0 -2.191742 1.7767639 -3.9685059 3.9685059 -3.9685059l0 0c1.0525055 0 2.0619202 0.41810608 2.8061523 1.1623535c0.74424744 0.7442322 1.1623535 1.7536469 1.1623535 2.8061523l0 0c0 2.191742 -1.7767639 3.9685059 -3.9685059 3.9685059l0 0c-2.191742 0 -3.9685059 -1.7767639 -3.9685059 -3.9685059z" fill-rule="evenodd"/><path fill="#ffffff" d="m273.2713 178.6051l0 0c0 -2.191742 1.7767639 -3.9684906 3.9685059 -3.9684906l0 0c1.0525208 0 2.0619202 0.41810608 2.8061829 1.1623383c0.7442322 0.74424744 1.162323 1.7536469 1.162323 2.8061523l0 0c0 2.1917572 -1.7767334 3.9685059 -3.9685059 3.9685059l0 0c-2.191742 0 -3.9685059 -1.7767487 -3.9685059 -3.9685059z" fill-rule="evenodd"/><path stroke="#ffffff" stroke-width="1.0" stroke-linejoin="round" stroke-linecap="butt" d="m273.2713 178.6051l0 0c0 -2.191742 1.7767639 -3.9684906 3.9685059 -3.9684906l0 0c1.0525208 0 2.0619202 0.41810608 2.8061829 1.1623383c0.7442322 0.74424744 1.162323 1.7536469 1.162323 2.8061523l0 0c0 2.1917572 -1.7767334 3.9685059 -3.9685059 3.9685059l0 0c-2.191742 0 -3.9685059 -1.7767487 -3.9685059 -3.9685059z" fill-rule="evenodd"/><path fill="#ffffff" d="m268.33157 259.5014l0 0c0 -2.191742 1.7767334 -3.968521 3.9684753 -3.968521l0 0c1.0525208 0 2.0619202 0.41812134 2.8061829 1.1623688c0.7442322 0.7442322 1.162323 1.7536316 1.162323 2.8061523l0 0c0 2.191742 -1.7767334 3.9685059 -3.9685059 3.9685059l0 0c-2.191742 0 -3.9684753 -1.7767639 -3.9684753 -3.9685059z" fill-rule="evenodd"/><path stroke="#ffffff" stroke-width="1.0" stroke-linejoin="round" stroke-linecap="butt" d="m268.33157 259.5014l0 0c0 -2.191742 1.7767334 -3.968521 3.9684753 -3.968521l0 0c1.0525208 0 2.0619202 0.41812134 2.8061829 1.1623688c0.7442322 0.7442322 1.162323 1.7536316 1.162323 2.8061523l0 0c0 2.191742 -1.7767334 3.9685059 -3.9685059 3.9685059l0 0c-2.191742 0 -3.9684753 -1.7767639 -3.9684753 -3.9685059z" fill-rule="evenodd"/><path fill="#ffffff" d="m205.38434 259.5014l0 0c0 -2.191742 1.7767639 -3.968521 3.9685059 -3.968521l0 0c1.0525208 0 2.0619202 0.41812134 2.8061523 1.1623688c0.74424744 0.7442322 1.1623535 1.7536316 1.1623535 2.8061523l0 0c0 2.191742 -1.7767639 3.9685059 -3.9685059 3.9685059l0 0c-2.191742 0 -3.9685059 -1.7767639 -3.9685059 -3.9685059z" fill-rule="evenodd"/><path stroke="#ffffff" stroke-width="1.0" stroke-linejoin="round" stroke-linecap="butt" d="m205.38434 259.5014l0 0c0 -2.191742 1.7767639 -3.968521 3.9685059 -3.968521l0 0c1.0525208 0 2.0619202 0.41812134 2.8061523 1.1623688c0.74424744 0.7442322 1.1623535 1.7536316 1.1623535 2.8061523l0 0c0 2.191742 -1.7767639 3.9685059 -3.9685059 3.9685059l0 0c-2.191742 0 -3.9685059 -1.7767639 -3.9685059 -3.9685059z" fill-rule="evenodd"/></g></svg>