<svg version="1.1" viewBox="0.0 0.0 360.26771653543307 357.8503937007874" fill="none" stroke="none" stroke-linecap="square" stroke-miterlimit="10" xmlns:xlink="http://www.w3.org/1999/xlink" xmlns="http://www.w3.org/2000/svg"><clipPath id="p.0"><path d="m0 0l360.26773 0l0 357.8504l-360.26773 0l0 -357.8504z" clip-rule="nonzero"/></clipPath><g clip-path="url(#p.0)"><path fill="#000000" fill-opacity="0.0" d="m0 0l360.26773 0l0 357.8504l-360.26773 0z" fill-rule="evenodd"/><path fill="#000000" fill-opacity="0.0" d="m219.09448 106.35074l0 0c0 -11.993706 9.722824 -21.71653 21.716537 -21.71653l0 0c5.7595825 0 11.283279 2.2879791 15.355911 6.360626c4.072632 4.0726395 6.360626 9.596321 6.360626 15.355904l0 0c0 11.993713 -9.722824 21.716537 -21.716537 21.716537l0 0c-11.993713 0 -21.716537 -9.722824 -21.716537 -21.716537z" fill-rule="evenodd"/><path stroke="#ffffff" stroke-width="8.0" stroke-linejoin="round" stroke-linecap="butt" d="m219.09448 106.35074l0 0c0 -11.993706 9.722824 -21.71653 21.716537 -21.71653l0 0c5.7595825 0 11.283279 2.2879791 15.355911 6.360626c4.072632 4.0726395 6.360626 9.596321 6.360626 15.355904l0 0c0 11.993713 -9.722824 21.716537 -21.716537 21.716537l0 0c-11.993713 0 -21.716537 -9.722824 -21.716537 -21.716537z" fill-rule="evenodd"/><path fill="#000000" fill-opacity="0.0" d="m240.81102 130.0586l0 79.55905" fill-rule="evenodd"/><path stroke="#ffffff" stroke-width="8.0" stroke-linejoin="round" stroke-linecap="butt" d="m240.81102 130.0586l0 79.55905" fill-rule="evenodd"/><path fill="#000000" fill-opacity="0.0" d="m240.81102 204.96326l-31.370071 54.362213" fill-rule="evenodd"/><path stroke="#ffffff" stroke-width="8.0" stroke-linejoin="round" stroke-linecap="butt" d="m240.81102 204.96326l-31.370071 54.362213" fill-rule="evenodd"/><path fill="#000000" fill-opacity="0.0" d="m240.81172 204.96422l31.370071 54.362198" fill-rule="evenodd"/><path stroke="#ffffff" stroke-width="8.0" stroke-linejoin="round" stroke-linecap="butt" d="m240.81172 204.96422l31.370071 54.362198" fill-rule="evenodd"/><path fill="#000000" fill-opacity="0.0" d="m241.14174 142.48715l36.062973 36.06299" fill-rule="evenodd"/><path stroke="#ffffff" stroke-width="8.0" stroke-linejoin="round" stroke-linecap="butt" d="m241.14174 142.48715l36.062973 36.06299" fill-rule="evenodd"/><path fill="#000000" fill-opacity="0.0" d="m240.48032 142.48715l-36.06299 36.06299" fill-rule="evenodd"/><path stroke="#ffffff" stroke-width="8.0" stroke-linejoin="round" stroke-linecap="butt" d="m240.48032 142.48715l-36.06299 36.06299" fill-rule="evenodd"/><path fill="#000000" fill-opacity="0.0" d="m240.46457 46.870426l0.3464508 37.763783" fill-rule="evenodd"/><path stroke="#ffffff" stroke-width="4.0" stroke-linejoin="round" stroke-linecap="butt" d="m240.46457 46.870426l0.3464508 37.763783" fill-rule="evenodd"/><path fill="#000000" fill-opacity="0.0" d="m240.48032 48.87166l-120.15748 0" fill-rule="evenodd"/><path stroke="#ffffff" stroke-width="4.0" stroke-linejoin="round" stroke-linecap="butt" d="m240.48032 48.87166l-120.15748 0" fill-rule="evenodd"/><path fill="#000000" fill-opacity="0.0" d="m120.30708 46.868767l0 267.0551" fill-rule="evenodd"/><path stroke="#ffffff" stroke-width="4.0" stroke-linejoin="round" stroke-linecap="butt" d="m120.30708 46.868767l0 267.0551" fill-rule="evenodd"/><path fill="#000000" fill-opacity="0.0" d="m80.91601 313.92126l198.96063 0" fill-rule="evenodd"/><path stroke="#ffffff" stroke-width="4.0" stroke-linejoin="round" stroke-linecap="butt" d="m80.91601 313.92126l198.96063 0" fill-rule="evenodd"/><path fill="#ffffff" d="m240.80412 109.76149l0.35743713 -0.43307495l0.460495 -0.3507843l0.6051483 -0.364357l0.7974243 -0.22000122l0.6048584 -0.06871796l0.65335083 0.0069351196l0.7561493 0.16513824l0.8043518 0.33000183l0.82514954 0.4948578l0.97613525 0.77693176l1.4588776 1.3612823l0.9212799 0.78356934l0.43162537 0.35079193l0.93515015 0.4535675l0.62564087 0.069000244l0.39871216 -0.28207397l0.254364 -0.4812851l0.06871033 -0.6048584l-0.0138549805 -0.56385803l-0.13050842 -0.5569229l-0.35742188 -0.44000244l-0.36436462 -0.15792847l-0.36434937 0.047927856l-0.30256653 0.18564606l-0.21307373 0.30949402l-0.19950867 0.034362793l-0.20613098 -0.1305008l-0.055145264 -0.29564667l0.19256592 -0.52949524l0.25839233 -0.39178467l0.3712921 -0.35771942l0.536438 -0.21307373l0.6804962 0.06871796l0.6461334 0.32335663l0.5090027 0.40564728l0.41229248 0.6117859l0.36434937 0.6804962l0.254364 0.78385925l0.062072754 0.6779022l0.047927856 0.7012787l-0.10307312 1.1135712l-0.2612915 0.93515015l-0.3022766 0.647583l-0.39900208 0.65999603l-0.81100464 0.77404785l-0.90771484 0.5774231l-0.86354065 0.4016037l-0.96920776 0.29563904l-0.94467163 0.1940155l-1.1825714 0.061790466l-0.91696167 -0.08257294l-1.2374268 -0.28178406l-1.0590057 -0.33692932l-1.2099915 -0.6395035l-0.966629 -0.6048584l-0.98306274 -0.8317795l-0.8043518 -0.79772186l-0.13743591 -0.061782837l-0.12385559 0.08950043l-0.8869324 0.8592148l-0.74920654 0.6380539l-1.2994995 0.8595047l-1.0200348 0.48099518l-1.1964264 0.3782196l-1.4230652 0.31613922l-0.96258545 0.02771759l-0.8799896 -0.07564545l-0.92793274 -0.20642853l-0.74806213 -0.19228363l-0.8525696 -0.3851471l-0.8317871 -0.48936462l-0.769989 -0.67385864l-0.55693054 -0.7425766l-0.4882202 -1.010498l-0.22000122 -0.68078613l-0.11000061 -0.91436005l0.02079773 -0.91291046l0.14434814 -0.9625702l0.30229187 -0.8950119l0.52256775 -0.8869324l0.4951477 -0.4948578l0.5774231 -0.30950165l0.54307556 -0.1169281l0.5707855 0.09643555l0.43307495 0.28871155l0.41227722 0.460495l0.25463867 0.52950287l0.047927856 0.26792908l-0.08256531 0.22000122l-0.18534851 0.09642792l-0.23387146 -0.11000061l-0.17871094 -0.24078369l-0.30256653 -0.19921875l-0.3712921 -0.02078247l-0.4535675 0.24771118l-0.24771118 0.38485718l-0.15792847 0.6943588l0 0.73015594l0.17178345 0.4812851l0.30256653 0.38485718l0.42614746 0.17207336l0.54307556 -0.13078308l0.6599884 -0.41921234l0.6325836 -0.44692993l0.98306274 -0.8869324l0.8730774 -0.7904968l1.0711212 -0.9198456l0.77693176 -0.52950287l0.74949646 -0.4399948l0.57598877 -0.16485596l0.6117859 -0.09643555l0.79078674 0.034362793l0.85920715 0.16513824l0.61468506 0.2405014l0.61206055 0.35079193l0.39178467 0.38484955z" fill-rule="evenodd"/><path stroke="#ffffff" stroke-width="1.0" stroke-linejoin="round" stroke-linecap="butt" d="m240.80412 109.76149l0.35743713 -0.43307495l0.460495 -0.3507843l0.6051483 -0.364357l0.7974243 -0.22000122l0.6048584 -0.06871796l0.65335083 0.0069351196l0.7561493 0.16513824l0.8043518 0.33000183l0.82514954 0.4948578l0.97613525 0.77693176l1.4588776 1.3612823l0.9212799 0.78356934l0.43162537 0.35079193l0.93515015 0.4535675l0.62564087 0.069000244l0.39871216 -0.28207397l0.254364 -0.4812851l0.06871033 -0.6048584l-0.0138549805 -0.56385803l-0.13050842 -0.5569229l-0.35742188 -0.44000244l-0.36436462 -0.15792847l-0.36434937 0.047927856l-0.30256653 0.18564606l-0.21307373 0.30949402l-0.19950867 0.034362793l-0.20613098 -0.1305008l-0.055145264 -0.29564667l0.19256592 -0.52949524l0.25839233 -0.39178467l0.3712921 -0.35771942l0.536438 -0.21307373l0.6804962 0.06871796l0.6461334 0.32335663l0.5090027 0.40564728l0.41229248 0.6117859l0.36434937 0.6804962l0.254364 0.78385925l0.062072754 0.6779022l0.047927856 0.7012787l-0.10307312 1.1135712l-0.2612915 0.93515015l-0.3022766 0.647583l-0.39900208 0.65999603l-0.81100464 0.77404785l-0.90771484 0.5774231l-0.86354065 0.4016037l-0.96920776 0.29563904l-0.94467163 0.1940155l-1.1825714 0.061790466l-0.91696167 -0.08257294l-1.2374268 -0.28178406l-1.0590057 -0.33692932l-1.2099915 -0.6395035l-0.966629 -0.6048584l-0.98306274 -0.8317795l-0.8043518 -0.79772186l-0.13743591 -0.061782837l-0.12385559 0.08950043l-0.8869324 0.8592148l-0.74920654 0.6380539l-1.2994995 0.8595047l-1.0200348 0.48099518l-1.1964264 0.3782196l-1.4230652 0.31613922l-0.96258545 0.02771759l-0.8799896 -0.07564545l-0.92793274 -0.20642853l-0.74806213 -0.19228363l-0.8525696 -0.3851471l-0.8317871 -0.48936462l-0.769989 -0.67385864l-0.55693054 -0.7425766l-0.4882202 -1.010498l-0.22000122 -0.68078613l-0.11000061 -0.91436005l0.02079773 -0.91291046l0.14434814 -0.9625702l0.30229187 -0.8950119l0.52256775 -0.8869324l0.4951477 -0.4948578l0.5774231 -0.30950165l0.54307556 -0.1169281l0.5707855 0.09643555l0.43307495 0.28871155l0.41227722 0.460495l0.25463867 0.52950287l0.047927856 0.26792908l-0.08256531 0.22000122l-0.18534851 0.09642792l-0.23387146 -0.11000061l-0.17871094 -0.24078369l-0.30256653 -0.19921875l-0.3712921 -0.02078247l-0.4535675 0.24771118l-0.24771118 0.38485718l-0.15792847 0.6943588l0 0.73015594l0.17178345 0.4812851l0.30256653 0.38485718l0.42614746 0.17207336l0.54307556 -0.13078308l0.6599884 -0.41921234l0.6325836 -0.44692993l0.98306274 -0.8869324l0.8730774 -0.7904968l1.0711212 -0.9198456l0.77693176 -0.52950287l0.74949646 -0.4399948l0.57598877 -0.16485596l0.6117859 -0.09643555l0.79078674 0.034362793l0.85920715 0.16513824l0.61468506 0.2405014l0.61206055 0.35079193l0.39178467 0.38484955z" fill-rule="evenodd"/><path fill="#ffffff" d="m253.21323 100.935844l6.014099 -1.6293945l5.160309 -2.7162094l3.646576 -2.8709946l1.008606 -2.561409l-0.11569214 -2.289299l-1.7076111 -1.9406128l-2.559784 -1.5430374l-4.6567993 -0.93201447l-2.171997 0l0.19390869 -9.062706l0.23300171 -12.541462l0.11569214 -5.8348694l-5.9913025 -1.3589172l-8.2642975 -0.5425873l-8.458191 0.07820892l-7.061798 0.34869385l-5.1521606 1.0085945l-0.23300171 5.5872l0.46600342 16.140797l0.19390869 6.556694l-4.69429 0.039108276l-2.5614166 0.721817l-2.4440918 0.8147049l-1.047699 1.1259079l-0.8929138 2.559784l0.62080383 2.7162018l1.5528107 1.8249283l3.0648956 2.5206757l4.3847046 2.0562973l6.5957947 1.7858124l5.935898 0.9303894l6.5338745 0.15641785l7.17749 -0.6207962z" fill-rule="evenodd"/><path stroke="#ffffff" stroke-width="1.0" stroke-linejoin="round" stroke-linecap="butt" d="m253.21323 100.935844l6.014099 -1.6293945l5.160309 -2.7162094l3.646576 -2.8709946l1.008606 -2.561409l-0.11569214 -2.289299l-1.7076111 -1.9406128l-2.559784 -1.5430374l-4.6567993 -0.93201447l-2.171997 0l0.19390869 -9.062706l0.23300171 -12.541462l0.11569214 -5.8348694l-5.9913025 -1.3589172l-8.2642975 -0.5425873l-8.458191 0.07820892l-7.061798 0.34869385l-5.1521606 1.0085945l-0.23300171 5.5872l0.46600342 16.140797l0.19390869 6.556694l-4.69429 0.039108276l-2.5614166 0.721817l-2.4440918 0.8147049l-1.047699 1.1259079l-0.8929138 2.559784l0.62080383 2.7162018l1.5528107 1.8249283l3.0648956 2.5206757l4.3847046 2.0562973l6.5957947 1.7858124l5.935898 0.9303894l6.5338745 0.15641785l7.17749 -0.6207962z" fill-rule="evenodd"/><path fill="#ffffff" d="m200.49081 178.51706l0 0c0 -2.191742 1.7767639 -3.9685059 3.9685059 -3.9685059l0 0c1.0525055 0 2.0619202 0.41810608 2.8061523 1.1623535c0.74424744 0.7442322 1.1623535 1.7536469 1.1623535 2.8061523l0 0c0 2.191742 -1.7767639 3.9685059 -3.9685059 3.9685059l0 0c-2.191742 0 -3.9685059 -1.7767639 -3.9685059 -3.9685059z" fill-rule="evenodd"/><path stroke="#ffffff" stroke-width="1.0" stroke-linejoin="round" stroke-linecap="butt" d="m200.49081 178.51706l0 0c0 -2.191742 1.7767639 -3.9685059 3.9685059 -3.9685059l0 0c1.0525055 0 2.0619202 0.41810608 2.8061523 1.1623535c0.74424744 0.7442322 1.1623535 1.7536469 1.1623535 2.8061523l0 0c0 2.191742 -1.7767639 3.9685059 -3.9685059 3.9685059l0 0c-2.191742 0 -3.9685059 -1.7767639 -3.9685059 -3.9685059z" fill-rule="evenodd"/><path fill="#ffffff" d="m273.2713 178.6051l0 0c0 -2.191742 1.7767639 -3.9684906 3.9685059 -3.9684906l0 0c1.0525208 0 2.0619202 0.41810608 2.8061829 1.1623383c0.7442322 0.74424744 1.162323 1.7536469 1.162323 2.8061523l0 0c0 2.1917572 -1.7767334 3.9685059 -3.9685059 3.9685059l0 0c-2.191742 0 -3.9685059 -1.7767487 -3.9685059 -3.9685059z" fill-rule="evenodd"/><path stroke="#ffffff" stroke-width="1.0" stroke-linejoin="round" stroke-linecap="butt" d="m273.2713 178.6051l0 0c0 -2.191742 1.7767639 -3.9684906 3.9685059 -3.9684906l0 0c1.0525208 0 2.0619202 0.41810608 2.8061829 1.1623383c0.7442322 0.74424744 1.162323 1.7536469 1.162323 2.8061523l0 0c0 2.1917572 -1.7767334 3.9685059 -3.9685059 3.9685059l0 0c-2.191742 0 -3.9685059 -1.7767487 -3.9685059 -3.9685059z" fill-rule="evenodd"/><path fill="#ffffff" d="m268.33157 259.5014l0 0c0 -2.191742 1.7767334 -3.968521 3.9684753 -3.968521l0 0c1.0525208 0 2.0619202 0.41812134 2.8061829 1.1623688c0.7442322 0.7442322 1.162323 1.7536316 1.162323 2.8061523l0 0c0 2.191742 -1.7767334 3.9685059 -3.9685059 3.9685059l0 0c-2.191742 0 -3.9684753 -1.7767639 -3.9684753 -3.9685059z" fill-rule="evenodd"/><path stroke="#ffffff" stroke-width="1.0" stroke-linejoin="round" stroke-linecap="butt" d="m268.33157 259.5014l0 0c0 -2.191742 1.7767334 -3.968521 3.9684753 -3.968521l0 0c1.0525208 0 2.0619202 0.41812134 2.8061829 1.1623688c0.7442322 0.7442322 1.162323 1.7536316 1.162323 2.8061523l0 0c0 2.191742 -1.7767334 3.9685059 -3.9685059 3.9685059l0 0c-2.191742 0 -3.9684753 -1.7767639 -3.9684753 -3.9685059z" fill-rule="evenodd"/><path fill="#ffffff" d="m205.38434 259.5014l0 0c0 -2.191742 1.7767639 -3.968521 3.9685059 -3.968521l0 0c1.0525208 0 2.0619202 0.41812134 2.8061523 1.1623688c0.74424744 0.7442322 1.1623535 1.7536316 1.1623535 2.8061523l0 0c0 2.191742 -1.7767639 3.9685059 -3.9685059 3.9685059l0 0c-2.191742 0 -3.9685059 -1.7767639 -3.9685059 -3.9685059z" fill-rule="evenodd"/><path stroke="#ffffff" stroke-width="1.0" stroke-linejoin="round" stroke-linecap="butt" d="m205.38434 259.5014l0 0c0 -2.191742 1.7767639 -3.968521 3.9685059 -3.968521l0 0c1.0525208 0 2.0619202 0.41812134 2.8061523 1.1623688c0.74424744 0.7442322 1.1623535 1.7536316 1.1623535 2.8061523l0 0c0 2.191742 -1.7767639 3.9685059 -3.9685059 3.9685059l0 0c-2.191742 0 -3.9685059 -1.7767639 -3.9685059 -3.9685059z" fill-rule="evenodd"/></g></svg>