<svg version="1.1" viewBox="0.0 0.0 360.26771653543307 357.8503937007874" fill="none" stroke="none" stroke-linecap="square" stroke-miterlimit="10" xmlns:xlink="http://www.w3.org/1999/xlink" xmlns="http://www.w3.org/2000/svg"><clipPath id="p.0"><path d="m0 0l360.26773 0l0 357.8504l-360.26773 0l0 -357.8504z" clip-rule="nonzero"/></clipPath><g clip-path="url(#p.0)"><path fill="#000000" fill-opacity="0.0" d="m0 0l360.26773 0l0 357.8504l-360.26773 0z" fill-rule="evenodd"/><path fill="#000000" fill-opacity="0.0" d="m219.09448 106.35074l0 0c0 -11.993706 9.722824 -21.71653 21.716537 -21.71653l0 0c5.7595825 0 11.283279 2.2879791 15.355911 6.360626c4.072632 4.0726395 6.360626 9.596321 6.360626 15.355904l0 0c0 11.993713 -9.722824 21.716537 -21.716537 21.716537l0 0c-11.993713 0 -21.716537 -9.722824 -21.716537 -21.716537z" fill-rule="evenodd"/><path stroke="#ffffff" stroke-width="8.0" stroke-linejoin="round" stroke-linecap="butt" d="m219.09448 106.35074l0 0c0 -11.993706 9.722824 -21.71653 21.716537 -21.71653l0 0c5.7595825 0 11.283279 2.2879791 15.355911 6.360626c4.072632 4.0726395 6.360626 9.596321 6.360626 15.355904l0 0c0 11.993713 -9.722824 21.716537 -21.716537 21.716537l0 0c-11.993713 0 -21.716537 -9.722824 -21.716537 -21.716537z" fill-rule="evenodd"/><path fill="#000000" fill-opacity="0.0" d="m240.46457 46.870426l0.3464508 37.763783" fill-rule="evenodd"/><path stroke="#ffffff" stroke-width="4.0" stroke-linejoin="round" stroke-linecap="butt" d="m240.46457 46.870426l0.3464508 37.763783" fill-rule="evenodd"/><path fill="#000000" fill-opacity="0.0" d="m240.48032 48.87166l-120.15748 0" fill-rule="evenodd"/><path stroke="#ffffff" stroke-width="4.0" stroke-linejoin="round" stroke-linecap="butt" d="m240.48032 48.87166l-120.15748 0" fill-rule="evenodd"/><path fill="#000000" fill-opacity="0.0" d="m120.30708 46.868767l0 267.0551" fill-rule="evenodd"/><path stroke="#ffffff" stroke-width="4.0" stroke-linejoin="round" stroke-linecap="butt" d="m120.30708 46.868767l0 267.0551" fill-rule="evenodd"/><path fill="#000000" fill-opacity="0.0" d="m80.91601 313.92126l198.96063 0" fill-rule="evenodd"/><path stroke="#ffffff" stroke-width="4.0" stroke-linejoin="round" stroke-linecap="butt" d="m80.91601 313.92126l198.96063 0" fill-rule="evenodd"/></g></svg>